<?xml version="1.0" encoding="utf-8"?>
<!-- Generator: Adobe Illustrator 28.3.0, SVG Export Plug-In . SVG Version: 6.00 Build 0)  -->
<svg version="1.1" id="Layer_1" xmlns="http://www.w3.org/2000/svg" xmlns:xlink="http://www.w3.org/1999/xlink" x="0px" y="0px"
	 viewBox="0 0 200 90.9" style="enable-background:new 0 0 200 90.9;" xml:space="preserve">
<style type="text/css">
	.st0{display:none;}
	.st1{display:inline;}
	.st2{fill:#006A5B;}
	.st3{display:inline;fill:#6CCA98;}
	.st4{fill:#6CCA98;}
	.st5{fill:#7B868C;}
	.st6{display:inline;fill:none;stroke:#006A5B;stroke-width:0.8424;stroke-miterlimit:10;}
	.st7{font-family:'DBOzoneX-Medium';}
	.st8{font-size:22px;}
	.st9{display:inline;fill:#006A5B;}
	.st10{fill:none;stroke:#006A5B;stroke-width:0.8424;stroke-miterlimit:10;}
	.st11{font-family:'DBOzoneX-Bold';}
	.st12{font-size:15.7418px;}
</style>
<g class="st0">
	<g class="st1">
		<path class="st2" d="M122.8,14L122.8,14h-5.6v3.5h5.5l0,0c2.4,0,3.5,0.5,3.5,2.2v9.9h4.4v-9.8C130.6,16.2,127.8,14.1,122.8,14z"/>
		<polygon class="st2" points="74.7,24.7 74.7,24.7 71.8,14 66.5,14 63.6,24.7 63.5,24.7 60.1,14 55.2,14 60.9,29.5 66.1,29.5 
			69.1,19 69.2,19 72.2,29.5 77.4,29.5 83,14 78.2,14 		"/>
		<path class="st2" d="M145.7,10.5V7.1h-15.1v3.4h6.5c-1.4,1.3-2.2,3-2.2,4.8v14.2h4.4V15.3C139.3,12.2,142.7,10.5,145.7,10.5
			L145.7,10.5L145.7,10.5z"/>
		<path class="st2" d="M109.7,24c0,1.6-1,2.7-3.7,2.7c-0.1,0-0.2,0-0.3,0c-0.1,0-0.2,0-0.3,0c-2.7-0.1-3.7-1.1-3.7-2.6v-4.8
			c0,0,0,0,0-0.1c0-0.4,0-0.8-0.1-1.1c-0.4-1.7-1.8-3.1-4-3.9c-1.2-0.4-2.7-0.7-4.3-0.7l0,0c-4.6,0-7.6,1.9-8.3,4.6
			c-0.1,0.4-0.2,0.8-0.2,1.2v10.2l0,0l0,0h6.8v-3.4h-2.3v-6.4c0-1.6,0.9-2.7,3.7-2.8c0.1,0,0.2,0,0.3,0c0.1,0,0.2,0,0.3,0
			c2.5,0.1,3.5,1,3.6,2.4v5c0,0.1,0,0.2,0,0.2c0,0.3,0.1,0.7,0.1,1c0.4,1.8,1.8,3.2,4,3.9c1.2,0.4,2.6,0.7,4.3,0.7l0,0
			c1.5,0,2.9-0.2,4-0.6v0.4c0,1.6-1.1,2.2-3.5,2.2l0,0h-6.7v3.5h6.8l0,0c5.1,0,7.8-2.1,7.8-5.8V14h-4.5L109.7,24L109.7,24z"/>
		<path class="st2" d="M157,13.4c-0.1,0-0.3,0-0.5,0l0,0c-2.2,0-4.5,0.6-6.4,1.7V14h-4.5v15.5h4.5v-8.2c0-0.8,0.3-1.5,0.8-2.1
			c1.2-1.6,3.5-2.3,5.6-2.3l0,0c2.5,0,4.2,0.6,4.2,2.2v10.5h4.4V19.1C165.1,15.5,162.2,13.4,157,13.4z"/>
	</g>
	<path class="st3" d="M58.2,46.5h5.5c2.7,0,4.2-1.3,4.2-3.5c0-2-1.6-3.4-4.1-3.4h-8.6v10.2h2.9L58.2,46.5L58.2,46.5z M58.2,41.9h5.4
		c0.9,0,1.5,0.4,1.5,1.1c0,0.7-0.5,1.2-1.4,1.2h-5.4L58.2,41.9L58.2,41.9z M119,49.8h2.9v-7.9h4.9v-2.3h-12.6v2.3h4.9L119,49.8
		L119,49.8z M132.6,45.8h7.3v3.9h2.9V39.6h-2.9v4h-7.3v-4h-2.9v10.2h2.9V45.8z M103.4,49.8l1.2-2.1h6.3l1.2,2.1h3l-5.7-10.2h-3.3
		l-5.7,10.2H103.4z M107.7,42l1.8,3.4h-3.7L107.7,42z M73.9,45.8h7.3v3.9h2.9V39.6h-2.9v4h-7.3v-4H71v10.2h2.9V45.8z M92.5,49.8h2.9
		v-3.9l6.4-6.3h-3.7L94,43.7l-4.2-4.1h-3.7l6.4,6.3L92.5,49.8L92.5,49.8z M162.2,39.6v10.2h2.9V39.6
		C165.1,39.6,162.2,39.6,162.2,39.6z M150.8,39.6l-5.7,10.2h3l1.2-2.1h6.3l1.2,2.1h3l-5.7-10.2H150.8z M150.6,45.4l1.8-3.4l1.8,3.4
		H150.6z"/>
	<g class="st1">
		<path class="st4" d="M24,36.3L24,36.3c0.1,0,0.1,0,0.2,0l0,0c0.1,0,0.2,0,0.3,0c1.1-0.2,1.9-0.9,2.3-1.9c0-0.1,0.1-0.2,0.1-0.3
			s0-0.1,0-0.2c0-0.2,0.1-0.3,0.1-0.5l0,0l0,0c0-1.6-1.3-2.9-2.9-2.9s-2.9,1.3-2.9,2.9v0.1c0,0.1,0,0.2,0,0.3c0,0.2-0.1,0.4-0.1,0.6
			c-0.4,1.6-1.9,2.8-3.7,2.8s-3.3-1.3-3.7-3c0-0.1,0-0.3-0.1-0.6c0,0,0-0.3,0-0.7c0-0.2,0-0.3,0-0.4c0-0.1,0-0.4,0-0.5
			c0-2.4-1.9-4.3-4.3-4.3S5,29.7,5,32c0,2.4,1.9,4.3,4.3,4.3h1.6c1.8,0,3.8,1.9,3.8,3.8c0,2-1.6,3.7-3.6,3.8c0,0-0.1,0-0.2,0h-0.1
			c-1.6,0-2.9,1.3-2.9,2.9s1.3,2.9,2.9,2.9c0.3,0,0.6-0.1,0.9-0.2c0.1,0,0.1,0,0.2-0.1c0.1,0,0.2-0.1,0.2-0.1c0.1,0,0.2-0.1,0.3-0.1
			s0.1-0.1,0.2-0.1c0.1-0.1,0.2-0.1,0.3-0.2c0.1,0,0.1-0.1,0.1-0.2c0.1-0.1,0.2-0.2,0.2-0.3s0.1-0.1,0.1-0.2
			c0.1-0.1,0.1-0.2,0.2-0.3c0-0.1,0-0.1,0.1-0.2c0-0.1,0.1-0.2,0.1-0.4c0-0.1,0-0.1,0-0.2c0-0.1,0-0.2,0-0.3c0-0.2,0-0.3,0-0.3
			c0-0.1,0-0.1,0-0.2c0.1-1.9,1.7-3.5,3.7-3.5s3.6,1.6,3.7,3.6c0,0.1,0,0.1,0,0.2v0.1c0,0.5,0.1,1,0.4,1.4c0.1,0.1,0.1,0.2,0.1,0.3
			c0.1,0.1,0.2,0.3,0.3,0.4c0,0,0,0,0.1,0.1c0.5,0.5,1.3,0.9,2.1,0.9h0.1c0.1,0,0.2,0,0.3,0c0.1,0,0.2,0,0.2-0.1
			c0.1,0,0.2-0.1,0.3-0.1c0.1,0,0.2-0.1,0.4-0.2h0.1c0,0,0,0,0.1,0s0.2-0.1,0.2-0.2c0.1-0.1,0.2-0.2,0.3-0.3
			c0.1-0.1,0.1-0.1,0.2-0.2c0.1-0.1,0.1-0.1,0.2-0.2c0-0.1,0.1-0.1,0.1-0.2c0.1-0.1,0.1-0.2,0.2-0.4c0-0.1,0-0.1,0.1-0.2
			c0-0.1,0.1-0.2,0.1-0.3s0-0.1,0-0.2c0-0.1,0-0.2,0-0.3s0-0.1,0-0.2c0-0.1,0-0.1,0-0.2c0-0.1,0-0.2,0-0.3s0-0.2-0.1-0.3
			c0-0.1,0-0.1,0-0.1c-0.4-1-1.3-1.8-2.4-2h-0.1c-0.1,0-0.2,0-0.3,0H24c-2-0.1-3.7-1.7-3.7-3.8C20.3,38.1,21.9,36.4,24,36.3z"/>
		<path class="st2" d="M33.4,32.1c0-0.1,0-0.1-0.1-0.1c-0.1-0.1-0.1-0.2-0.2-0.3c0,0,0-0.1-0.1-0.1c-0.1-0.1-0.2-0.2-0.3-0.3
			c-0.1-0.1-0.1-0.1-0.2-0.2l0,0c-0.4-0.4-1-0.6-1.6-0.7h-0.1c-0.2,0-0.4,0-0.5-0.1c-2-0.1-3.5-1.8-3.5-3.8c0-1.9,1.4-3.5,3.3-3.8
			c0.3,0,0.6-0.1,0.7-0.1c0.4,0,0.7-0.1,1-0.2l0.2-0.1l0,0c0.3-0.1,0.5-0.3,0.7-0.5l0.1-0.1c0.1,0,0.1-0.1,0.1-0.2
			c0.4-0.5,0.6-1.1,0.6-1.8c0-1.6-1.3-2.9-2.9-2.9c-0.1,0-0.2,0-0.3,0c-0.1,0-0.2,0-0.3,0h-0.1c-1,0.2-1.8,0.9-2.1,1.9
			c0,0-0.1,0.2-0.1,0.5c0,0.1,0,0.3,0,0.5v0.1c0,2-1.6,3.7-3.7,3.7c-1.7,0-3.1-1.1-3.5-2.6c-0.1-0.2-0.1-0.5-0.1-0.7
			c0,0,0-0.2,0-0.3c0-0.3,0.1-1.1,0.1-1.2s0-0.3,0-0.3c0-2.4-1.9-4.3-4.3-4.3s-4.3,1.9-4.3,4.3s1.9,4.3,4.3,4.3h1.4c0,0,0.2,0,0.4,0
			c1,0.1,1.9,0.7,2.5,1.4c0.4,0.5,0.7,1,0.7,1.7c0,0.2,0,0.4,0,0.5c0,2-1.6,3.6-3.5,3.7c-0.1,0-0.3,0-0.5,0.1c-0.1,0-0.2,0-0.3,0.1
			c-0.8,0.2-1.4,0.6-1.9,1.3v0.1c0,0.1-0.1,0.1-0.1,0.2c-0.2,0.4-0.4,0.9-0.4,1.4c0,1.6,1.3,2.9,2.9,2.9c0.8,0,1.6-0.4,2.1-0.9
			c0.2-0.1,0.3-0.3,0.4-0.5c0.2-0.3,0.3-0.5,0.3-0.8c0-0.1,0-0.1,0-0.2c0-0.1,0-0.3,0-0.4l0,0c0,0,0,0,0-0.1s0,0,0-0.1V33
			c0-0.4,0.1-0.8,0.2-1.2c0-0.1,0.1-0.3,0.1-0.4s0-0.1,0.1-0.1c0.6-1.2,1.9-2.1,3.3-2.1c0.2,0,0.3,0,0.5,0c0.1,0,0.1,0,0.2,0
			c1,0.2,1.9,0.9,2,1c0,0,0,0,0.1,0.1c0.6,0.6,1.1,1.5,1.1,2.6V33l0,0c0,0.4,0.1,0.7,0.2,1l0,0l0,0c0,0,0,0.1,0.1,0.1
			c0,0.1,0.1,0.2,0.2,0.3c0,0,0,0.1,0.1,0.1l0.1,0.1c0,0.1,0.1,0.1,0.1,0.1s0.1,0.1,0.1,0.2c0.1,0.1,0.1,0.1,0.2,0.2
			c0.1,0.1,0.1,0.1,0.2,0.2c0.1,0.1,0.1,0.1,0.2,0.2c0.1,0.1,0.2,0.1,0.3,0.2c0.1,0,0.1,0.1,0.2,0.1c0.1,0.1,0.2,0.1,0.3,0.1
			c0.1,0,0.2,0,0.2,0c0.1,0,0.2,0,0.2,0c0.1,0,0.1,0,0.2,0c1.6,0,2.9-1.3,2.9-2.9c0-0.3,0-0.5-0.1-0.7
			C33.5,32.3,33.4,32.2,33.4,32.1z"/>
		<path class="st5" d="M47.2,40c0-0.3,0-0.6-0.1-0.9l0,0c0-0.1,0-0.1-0.1-0.2v-0.1l-0.1-0.1c0,0,0-0.1-0.1-0.1c0,0,0,0,0-0.1
			c-0.5-0.9-1.4-1.4-2.5-1.4l0,0h-0.1c-2,0-3.7-2-3.7-3.8c0-2.1,1.7-3.9,3.9-3.9h0.2c0.5,0,1-0.2,1.4-0.5c0,0,0,0,0.1,0
			c0,0,0,0,0.1,0c0.2-0.1,0.4-0.3,0.5-0.5c0,0,0,0,0-0.1s0.1-0.1,0.1-0.2c0,0,0,0,0-0.1c0.1-0.2,0.2-0.4,0.3-0.6c0,0,0-0.1,0.1-0.1
			c0-0.1,0-0.1,0-0.2s0-0.1,0-0.2v-0.1c0-0.1,0-0.2,0-0.4c0-1.6-1.3-2.9-2.9-2.9s-2.9,1.3-2.9,2.9c0,0.1,0,0.2,0,0.2l0,0
			c-0.1,2-1.7,3.6-3.6,3.6c-2,0-3.7-1.6-3.7-3.7v-0.3c0-0.3-0.1-0.5-0.1-0.7c0,0,0,0,0-0.1c0,0,0-0.1-0.1-0.1
			c-0.4-1.1-1.5-1.9-2.7-1.9c-1.6,0-2.9,1.3-2.9,2.9c0,1.1,0.6,2.1,1.6,2.6l0,0c0.4,0.2,0.7,0.3,1.2,0.3c0,0,0.1,0,0.2,0
			c2.1,0,3.8,1.7,3.8,3.8c0,1.5-0.8,2.7-2,3.4c-0.4,0.2-0.8,0.4-1.3,0.5c-0.1,0-0.5,0-0.5,0c-0.2,0-0.8-0.1-0.9-0.1
			c-2.1,0-3.8,1.7-3.8,3.8s1.7,3.8,3.8,3.8s3.8-1.7,3.8-3.8c0-0.1,0-0.9,0-0.9c0-0.1,0-1.6,1.1-2.7c0.6-0.6,1.5-1,2.5-1h0.1
			c1,0,1.9,0.3,2.5,1c0.1,0.1,0.3,0.3,0.3,0.3c0.5,0.6,0.8,1.3,0.8,2.3c0,0.1,0,0.2,0,0.3c0,1.6,1.3,2.9,2.9,2.9
			c1,0,1.9-0.5,2.4-1.3C47,41.2,47.2,40.6,47.2,40z"/>
	</g>
	<line class="st6" x1="55.2" y1="59.8" x2="165.1" y2="59.8"/>
	<g class="st1">
		<text transform="matrix(1 0 0 1 54.0258 81.3138)" class="st5 st7 st8">สนามเป้า</text>
	</g>
	<path class="st9" d="M192.6,31.8c0.3-0.4,0.6-0.9,0.9-1.4c0.3-0.5,0.5-1.1,0.8-1.7c0.2-0.6,0.4-1.2,0.5-1.9
		c0.1-0.6,0.2-1.3,0.2-2.1c0-1.6-0.3-3.1-0.8-4.4s-1.3-2.5-2.2-3.4c-1-1-2.1-1.7-3.4-2.2s-2.8-0.8-4.4-0.8c-1.6,0-3,0.3-4.4,0.8
		c-1.3,0.6-2.5,1.3-3.4,2.3c-1,1-1.7,2.1-2.3,3.4c-0.5,1.3-0.8,2.7-0.8,4.2c0,0.1,0,0.2,0,0.4c0,0.1,0,0.3,0,0.4v0.2h4.9v-0.5
		c0-0.1,0-0.2,0-0.3c0-0.8,0.1-1.6,0.4-2.3c0.3-0.7,0.7-1.4,1.2-1.9s1.2-1,1.9-1.3s1.5-0.5,2.4-0.5s1.8,0.2,2.5,0.5s1.4,0.7,1.9,1.3
		c0.5,0.5,0.9,1.2,1.2,1.9c0.3,0.7,0.4,1.5,0.4,2.3c0,0.4,0,0.8-0.1,1.2c-0.1,0.4-0.2,0.8-0.3,1.1c-0.1,0.4-0.3,0.7-0.5,1
		s-0.4,0.6-0.5,0.8l-15.2,20.5l-0.2,0.3H195v-4.2h-12.6L192.6,31.8z"/>
</g>
<g>
	<g>
		<g>
			<g>
				<line class="st10" x1="43.6" y1="56.9" x2="172" y2="56.9"/>
			</g>
		</g>
		<g>
			<path class="st2" d="M47,29.8h6.4c3.1,0,4.9-1.5,4.9-4.1c0-2.4-1.9-4-4.8-4h-10v11.9H47L47,29.8L47,29.8z M47,24.4h6.3
				c1.1,0,1.7,0.5,1.7,1.3c0,0.8-0.6,1.4-1.7,1.4H47V24.4z M118.1,33.6h3.4v-9.2h5.7v-2.7h-14.8v2.7h5.7V33.6z M134,29h8.5v4.6h3.4
				V21.7h-3.4v4.6H134v-4.6h-3.4v11.9h3.4V29z M99.9,33.6l1.4-2.5h7.3l1.4,2.5h3.5l-6.6-11.9H103l-6.6,11.9H99.9z M104.9,24.5
				l2.2,3.9h-4.3L104.9,24.5z M65.4,29h8.5v4.6h3.4V21.7h-3.4v4.6h-8.5v-4.6H62v11.9h3.4V29z M87.1,33.6h3.4V29l7.4-7.3h-4.3
				l-4.8,4.8l-4.9-4.8h-4.3l7.5,7.3L87.1,33.6L87.1,33.6z M168.6,21.7v11.9h3.4V21.7H168.6z M155.3,21.7l-6.6,11.9h3.5l1.4-2.5h7.3
				l1.4,2.5h3.5l-6.6-11.9H155.3z M155.1,28.5l2.2-3.9l2.1,3.9H155.1z"/>
			<g>
				<polygon class="st4" points="124.6,41.3 124.6,49.2 132.9,49.2 132.9,47.4 126.9,47.4 126.9,41.3 				"/>
				<polygon class="st4" points="105.8,49.2 105.8,43.1 109.6,43.1 109.6,41.3 99.9,41.3 99.9,43.1 103.6,43.1 103.6,49.2 				"/>
				<path class="st4" d="M75.5,47.6c-1.7,0-3.1-0.3-4.3-1.2L70,47.8c1.7,1.1,3.4,1.6,5.5,1.6c3,0,4.7-1.1,4.7-2.7
					c0-1.4-1.4-2.1-4.2-2.3c-2.1-0.2-3.1-0.1-3.1-0.8c0-0.4,0.8-0.7,2.3-0.7c1.2,0,2.4,0.3,3.6,0.8l1.1-1.4
					c-1.3-0.9-2.9-1.2-4.9-1.2c-2.8,0-4.5,1-4.5,2.6c0,1.4,1.3,2.2,3.7,2.4c2.3,0.2,3.6,0.2,3.6,0.8C77.8,47.3,77,47.6,75.5,47.6z"
					/>
				<rect x="94.7" y="41.3" class="st4" width="2.2" height="7.8"/>
				<path class="st4" d="M66.1,42.4c-1-0.8-2.5-1.3-4.1-1.3c-1.6,0-3,0.5-4.1,1.3c-0.9,0.7-1.4,1.7-1.4,2.9s0.5,2.1,1.4,2.9
					c1,0.8,2.5,1.3,4.1,1.3c1.6,0,3.1-0.5,4.1-1.3c0.9-0.7,1.4-1.7,1.4-2.9C67.6,44.1,67.1,43.1,66.1,42.4z M62.1,47.6
					c-2,0-3.2-1-3.2-2.4c0-1.4,1.2-2.4,3.2-2.4c1.9,0,3.2,1,3.2,2.4C65.3,46.7,64,47.6,62.1,47.6z"/>
				<path class="st4" d="M89.2,41.3h-6.6v7.8h2.2v-2.5h4.2c2.1,0,3.2-1,3.2-2.7C92.3,42.4,91.1,41.3,89.2,41.3z M89,44.9h-4.1v-1.8
					H89c0.7,0,1.1,0.3,1.1,0.9C90.1,44.5,89.7,44.9,89,44.9z"/>
				<path class="st4" d="M117.9,41.3h-2.5l-4.3,7.8h2.3l0.9-1.6h4.8l0.9,1.6h2.3L117.9,41.3z M115.2,45.8l1.4-2.6l1.4,2.6H115.2z"/>
				<polygon class="st4" points="45.8,46.2 51.4,46.2 51.4,49.2 53.7,49.2 53.7,41.3 51.4,41.3 51.4,44.4 45.8,44.4 45.8,41.3 
					43.6,41.3 43.6,49.2 45.8,49.2 				"/>
			</g>
			<g>
				<path class="st4" d="M19.6,38.8C19.6,38.8,19.6,38.8,19.6,38.8c0.1,0,0.1,0,0.1,0c0,0,0,0,0,0c0.1,0,0.2,0,0.2,0
					c0.8-0.1,1.5-0.7,1.8-1.5c0-0.1,0-0.1,0.1-0.2c0,0,0-0.1,0-0.1c0-0.1,0-0.3,0-0.4l0,0v0c0-1.2-1-2.2-2.2-2.2s-2.2,1-2.2,2.2
					c0,0,0,0.1,0,0.1c0,0.1,0,0.2,0,0.2c0,0.2-0.1,0.3-0.1,0.4c-0.3,1.2-1.5,2.1-2.8,2.1c-1.4,0-2.6-1-2.8-2.3c0-0.1,0-0.2-0.1-0.4
					c0,0,0-0.2,0-0.6c0-0.1,0-0.2,0-0.3c0-0.1,0-0.3,0-0.4c0-1.8-1.5-3.3-3.3-3.3c-1.8,0-3.3,1.5-3.3,3.3c0,1.8,1.5,3.3,3.3,3.3h1.2
					c1.4,0,2.9,1.5,2.9,2.9c0,1.6-1.2,2.8-2.8,2.9c0,0-0.1,0-0.2,0c0,0,0,0-0.1,0c-1.2,0-2.2,1-2.2,2.2c0,1.2,1,2.2,2.2,2.2
					c0.2,0,0.5-0.1,0.7-0.1c0.1,0,0.1,0,0.2-0.1c0.1,0,0.1-0.1,0.2-0.1c0.1,0,0.1-0.1,0.2-0.1c0,0,0.1-0.1,0.1-0.1
					c0.1-0.1,0.1-0.1,0.2-0.2c0,0,0.1-0.1,0.1-0.1c0.1-0.1,0.1-0.1,0.2-0.2c0,0,0.1-0.1,0.1-0.1c0-0.1,0.1-0.2,0.1-0.2
					c0,0,0-0.1,0.1-0.1c0-0.1,0.1-0.2,0.1-0.3c0,0,0-0.1,0-0.2c0-0.1,0-0.1,0-0.2c0-0.1,0-0.2,0-0.2c0-0.1,0-0.1,0-0.2
					c0.1-1.5,1.3-2.7,2.8-2.7c1.5,0,2.8,1.2,2.8,2.7c0,0.1,0,0.1,0,0.1v0c0,0.4,0.1,0.7,0.3,1.1c0,0.1,0.1,0.1,0.1,0.2
					c0.1,0.1,0.2,0.2,0.2,0.3c0,0,0,0,0,0c0.4,0.4,1,0.7,1.6,0.7c0,0,0.1,0,0.1,0c0.1,0,0.2,0,0.2,0c0.1,0,0.1,0,0.2,0
					c0.1,0,0.1,0,0.2-0.1c0.1,0,0.2-0.1,0.3-0.1c0,0,0.1,0,0.1,0c0,0,0,0,0,0c0.1,0,0.1-0.1,0.2-0.1c0.1-0.1,0.2-0.1,0.2-0.2
					c0,0,0.1-0.1,0.1-0.1c0-0.1,0.1-0.1,0.1-0.2c0,0,0.1-0.1,0.1-0.1c0.1-0.1,0.1-0.2,0.2-0.3c0,0,0-0.1,0.1-0.1
					c0-0.1,0.1-0.2,0.1-0.2c0-0.1,0-0.1,0-0.2c0-0.1,0-0.2,0-0.3c0,0,0-0.1,0-0.1c0-0.1,0-0.1,0-0.2c0-0.1,0-0.1,0-0.2
					c0-0.1,0-0.2-0.1-0.2c0,0,0-0.1,0-0.1c-0.3-0.8-1-1.4-1.8-1.5c0,0-0.1,0-0.1,0c-0.1,0-0.1,0-0.2,0c0,0-0.1,0-0.1,0
					c-1.6-0.1-2.8-1.3-2.8-2.9C16.7,40.2,18,38.9,19.6,38.8z"/>
				<path class="st2" d="M26.8,35.5c0,0,0-0.1-0.1-0.1c0-0.1-0.1-0.2-0.1-0.2c0,0,0-0.1-0.1-0.1c-0.1-0.1-0.1-0.2-0.2-0.2
					c0-0.1-0.1-0.1-0.2-0.2c0,0,0,0,0,0c-0.3-0.3-0.8-0.5-1.3-0.6c0,0,0,0-0.1,0c-0.1,0-0.3,0-0.4,0c-1.5-0.1-2.7-1.4-2.7-2.9
					c0-1.5,1.1-2.7,2.5-2.9c0.2,0,0.5-0.1,0.6-0.1c0.3,0,0.5-0.1,0.7-0.2c0,0,0.1-0.1,0.1-0.1v0c0.2-0.1,0.4-0.2,0.6-0.4
					c0,0,0.1-0.1,0.1-0.1c0,0,0.1-0.1,0.1-0.1C26.8,27,27,26.5,27,26c0-1.2-1-2.2-2.2-2.2c-0.1,0-0.1,0-0.2,0c-0.1,0-0.2,0-0.2,0
					c0,0-0.1,0-0.1,0c-0.8,0.2-1.4,0.7-1.6,1.4c0,0-0.1,0.1-0.1,0.4c0,0.1,0,0.2,0,0.4c0,0,0,0.1,0,0.1c0,1.6-1.3,2.8-2.8,2.8
					c-1.3,0-2.4-0.9-2.7-2c-0.1-0.2-0.1-0.4-0.1-0.6c0,0,0-0.2,0-0.2c0-0.3,0.1-0.9,0.1-0.9c0-0.1,0-0.2,0-0.2
					c0-1.8-1.5-3.3-3.3-3.3c-1.8,0-3.3,1.5-3.3,3.3c0,1.8,1.5,3.3,3.3,3.3c0,0,1.1,0,1.1,0c0,0,0.1,0,0.3,0c0.7,0.1,1.5,0.5,1.9,1.1
					c0.3,0.4,0.5,0.8,0.6,1.3c0,0.1,0,0.3,0,0.4c0,1.5-1.2,2.8-2.7,2.9c-0.1,0-0.2,0-0.4,0c-0.1,0-0.2,0-0.3,0
					c-0.6,0.1-1.1,0.5-1.4,1c0,0,0,0,0,0.1c0,0.1-0.1,0.1-0.1,0.2c-0.2,0.3-0.3,0.7-0.3,1.1c0,1.2,1,2.2,2.2,2.2
					c0.6,0,1.2-0.3,1.6-0.7c0.1-0.1,0.2-0.2,0.3-0.4c0.1-0.2,0.2-0.4,0.2-0.6c0,0,0-0.1,0-0.1c0-0.1,0-0.2,0-0.3l0,0c0,0,0,0,0-0.1
					s0,0,0,0c0,0,0,0,0,0c0-0.3,0.1-0.6,0.2-0.9c0-0.1,0.1-0.2,0.1-0.3c0,0,0-0.1,0.1-0.1c0.5-1,1.4-1.6,2.6-1.6c0.1,0,0.2,0,0.4,0
					c0,0,0.1,0,0.1,0c0.7,0.1,1.4,0.7,1.5,0.8c0,0,0,0,0.1,0c0.5,0.5,0.8,1.1,0.8,2c0,0,0,0.1,0,0.1c0,0,0,0,0,0
					c0,0.3,0.1,0.5,0.2,0.8v0l0,0c0,0,0,0.1,0,0.1c0,0.1,0.1,0.2,0.1,0.2c0,0,0,0,0,0.1c0,0,0,0.1,0.1,0.1c0,0.1,0.1,0.1,0.1,0.1
					c0,0,0.1,0.1,0.1,0.1c0,0.1,0.1,0.1,0.1,0.1c0.1,0,0.1,0.1,0.2,0.1s0.1,0.1,0.2,0.1c0.1,0,0.1,0.1,0.2,0.1
					c0.1,0,0.1,0.1,0.2,0.1c0.1,0,0.2,0.1,0.3,0.1c0.1,0,0.1,0,0.2,0c0.1,0,0.1,0,0.2,0c0,0,0.1,0,0.2,0c1.2,0,2.2-1,2.2-2.2
					c0-0.2,0-0.4-0.1-0.6C26.9,35.7,26.8,35.6,26.8,35.5z"/>
				<path class="st5" d="M37.4,41.7c0-0.2,0-0.5-0.1-0.7c0,0,0,0,0,0c0-0.1,0-0.1-0.1-0.2c0,0,0,0,0-0.1c0,0,0-0.1-0.1-0.1
					c0,0,0-0.1,0-0.1c0,0,0,0,0,0c-0.4-0.7-1.1-1.1-1.9-1.1c0,0,0,0,0,0c0,0-0.1,0-0.1,0c-1.5,0-2.8-1.5-2.8-2.9c0-1.6,1.3-3,3-3
					c0,0,0.1,0,0.1,0c0.4,0,0.7-0.2,1-0.4c0,0,0,0,0,0c0,0,0,0,0,0c0.2-0.1,0.3-0.2,0.4-0.4c0,0,0,0,0,0c0,0,0.1-0.1,0.1-0.1
					c0,0,0,0,0,0c0.1-0.2,0.2-0.3,0.2-0.5c0,0,0-0.1,0-0.1c0,0,0-0.1,0-0.1c0-0.1,0-0.1,0-0.2c0,0,0,0,0-0.1c0-0.1,0-0.2,0-0.3
					c0-1.2-1-2.2-2.2-2.2c-1.2,0-2.2,1-2.2,2.2c0,0.1,0,0.1,0,0.2v0c0,1.5-1.3,2.7-2.8,2.7c-1.6,0-2.8-1.3-2.8-2.8c0,0,0-0.2,0-0.2
					c0-0.2,0-0.4-0.1-0.6c0,0,0,0,0,0c0,0,0-0.1,0-0.1C26.9,29.6,26,29,25.1,29c-1.2,0-2.2,1-2.2,2.2c0,0.9,0.5,1.6,1.2,2
					c0,0,0,0,0,0c0.3,0.2,0.6,0.2,0.9,0.3c0,0,0.1,0,0.1,0c1.6,0,2.9,1.3,2.9,2.9c0,1.1-0.6,2.1-1.6,2.6c-0.3,0.2-0.6,0.3-1,0.4
					c0,0-0.4,0-0.4,0c-0.1,0-0.6,0-0.7,0c-1.6,0-2.9,1.3-2.9,2.9c0,1.6,1.3,2.9,2.9,2.9s2.9-1.3,2.9-2.9c0-0.1,0-0.7,0-0.7
					c0-0.1,0-1.3,0.8-2.1c0.5-0.5,1.1-0.7,1.9-0.7h0.1c0.8,0,1.4,0.3,1.9,0.7c0.1,0.1,0.2,0.2,0.2,0.2c0.4,0.5,0.6,1,0.6,1.7
					c0,0.1,0,0.1,0,0.2c0,1.2,1,2.2,2.2,2.2c0.8,0,1.5-0.4,1.9-1C37.3,42.6,37.4,42.1,37.4,41.7z"/>
			</g>
		</g>
	</g>
	<g>
		<text transform="matrix(1 0 0 1 43.5885 72.5884)" class="st5 st11 st12">SANAM PAO</text>
	</g>
	<path class="st2" d="M193.1,35.4c0.2-0.3,0.5-0.7,0.7-1.1c0.2-0.4,0.4-0.8,0.6-1.3c0.2-0.5,0.3-0.9,0.4-1.4c0.1-0.5,0.2-1,0.2-1.6
		c0-1.2-0.2-2.3-0.6-3.3c-0.4-1-1-1.9-1.7-2.6c-0.7-0.7-1.6-1.3-2.6-1.7c-1-0.4-2.2-0.6-3.4-0.6c-1.2,0-2.3,0.2-3.3,0.6
		c-1,0.4-1.9,1-2.6,1.8c-0.7,0.7-1.3,1.6-1.7,2.6c-0.4,1-0.6,2.1-0.6,3.2c0,0.1,0,0.2,0,0.3c0,0.1,0,0.2,0,0.3l0,0.1l3.8,0l0-0.4
		c0-0.1,0-0.2,0-0.3c0-0.6,0.1-1.2,0.3-1.8c0.2-0.6,0.5-1,0.9-1.5c0.4-0.4,0.9-0.7,1.4-1c0.6-0.2,1.2-0.4,1.9-0.4
		c0.7,0,1.4,0.1,1.9,0.4c0.6,0.2,1,0.6,1.4,1c0.4,0.4,0.7,0.9,0.9,1.5c0.2,0.6,0.3,1.2,0.3,1.8c0,0.3,0,0.6-0.1,0.9
		s-0.2,0.6-0.3,0.9c-0.1,0.3-0.2,0.5-0.4,0.8c-0.1,0.2-0.3,0.5-0.4,0.6L178.4,49l-0.2,0.2h16.7V46h-9.6L193.1,35.4z"/>
</g>
</svg>
