<?xml version="1.0" encoding="utf-8"?>
<!-- Generator: Adobe Illustrator 28.3.0, SVG Export Plug-In . SVG Version: 6.00 Build 0)  -->
<svg version="1.1" id="Layer_1" xmlns="http://www.w3.org/2000/svg" xmlns:xlink="http://www.w3.org/1999/xlink" x="0px" y="0px"
	 viewBox="0 0 40 40" style="enable-background:new 0 0 40 40;" xml:space="preserve">
<style type="text/css">
	.st0{display:none;}
	.st1{display:inline;}
	.st2{display:inline;clip-path:url(#SVGID_00000129206641538653644070000004705497914264304566_);}
	.st3{fill:#ED1C24;}
	.st4{fill:#FFFFFF;}
	.st5{fill:#241D4F;}
	.st6{fill:#112ABA;}
	.st7{fill:#D9022A;}
</style>
<g class="st0">
	<defs>
		
			<ellipse id="SVGID_1_" transform="matrix(0.9998 -2.032990e-02 2.032990e-02 0.9998 -0.398 0.3956)" cx="19.3" cy="19.8" rx="17.5" ry="17.5"/>
	</defs>
	<clipPath id="SVGID_00000171701416513925977190000000607686785586073740_" class="st1">
		<use xlink:href="#SVGID_1_"  style="overflow:visible;"/>
	</clipPath>
	<g style="display:inline;clip-path:url(#SVGID_00000171701416513925977190000000607686785586073740_);">
		<rect x="-12.4" y="1.9" class="st3" width="57.5" height="6"/>
		<rect x="-12.4" y="8" class="st4" width="57.5" height="6"/>
		<rect x="-12.4" y="14" class="st5" width="57.5" height="6"/>
		<rect x="-12.4" y="19.7" class="st5" width="57.5" height="6.5"/>
		<rect x="-12.4" y="26.1" class="st4" width="57.5" height="6"/>
		<rect x="-12.4" y="32.2" class="st3" width="57.5" height="6"/>
	</g>
</g>
<g>
	<circle class="st6" cx="20" cy="20" r="17.5"/>
	<path class="st4" d="M36.4,26c-0.1,0.2-0.2,0.4-0.2,0.6c-0.2,0.5-0.4,1-0.7,1.5c-0.4,0.7-0.8,1.4-1.2,2l-10-5.3L22.6,24L20,22.6
		l-2.7,1.4l-1.6,0.9l-9.9,5.2c-0.2-0.2-0.3-0.4-0.5-0.7C5,29,4.7,28.5,4.5,28.1c-0.3-0.7-0.6-1.4-0.9-2.1l4.1-2.2l3.1-1.6L15,20
		l-4.3-2.3l-3.1-1.6l-4-2.1c0.1-0.2,0.2-0.5,0.3-0.7c0.2-0.5,0.4-1,0.7-1.5c0.4-0.7,0.8-1.4,1.2-2l9.9,5.2l1.6,0.9l2.7,1.4l2.6-1.4
		l1.6-0.9l10-5.3c0.2,0.2,0.3,0.4,0.5,0.7c0.3,0.5,0.6,0.9,0.8,1.4c0.3,0.7,0.6,1.3,0.9,2.1l-4,2.1l-3.1,1.6L25,20l4.2,2.2l3.1,1.6
		L36.4,26z"/>
	<path class="st7" d="M13,16.3H9.5l-0.4-0.2l-5.3-2.8c0.2-0.5,0.4-1,0.7-1.5l8.2,4.3L13,16.3z"/>
	<path class="st7" d="M35.5,11.9l-8,4.2l-0.4,0.2h-3.5l0.6-0.3l10.4-5.5C35,11,35.3,11.4,35.5,11.9z"/>
	<path class="st7" d="M16.4,23.7l-0.8,0.4L5.3,29.5C5,29,4.7,28.5,4.5,28.1l8.2-4.2l0.2-0.1H16.4z"/>
	<path class="st7" d="M36.2,26.6c-0.2,0.5-0.4,1-0.7,1.5l-8.2-4.3l-0.2-0.1h3.5l0.2,0.1L36.2,26.6z"/>
	<path class="st4" d="M37.5,20c0,0.7,0,1.5-0.1,2.2c-0.1,0.6-0.2,1.1-0.3,1.6H24.3V37c-0.5,0.1-1.1,0.2-1.6,0.3
		c-0.9,0.1-1.7,0.2-2.6,0.2c-0.9,0-1.8-0.1-2.7-0.2c-0.6-0.1-1.1-0.2-1.6-0.3V23.8H2.9c-0.1-0.5-0.2-1.1-0.3-1.6
		c-0.1-0.7-0.1-1.4-0.1-2.2c0-0.8,0.1-1.5,0.1-2.3c0.1-0.6,0.2-1.1,0.3-1.6h12.7v-13c0.5-0.1,1.1-0.3,1.6-0.3
		c0.9-0.1,1.8-0.2,2.7-0.2c0.9,0,1.8,0.1,2.6,0.2c0.6,0.1,1.1,0.2,1.6,0.3v13H37c0.1,0.5,0.2,1.1,0.3,1.6
		C37.4,18.5,37.5,19.2,37.5,20z"/>
	<path class="st7" d="M37.5,20c0,0.7,0,1.5-0.1,2.2H22.6v15.1c-0.9,0.1-1.7,0.2-2.6,0.2c-0.9,0-1.8-0.1-2.7-0.2V22.2H2.6
		c-0.1-0.7-0.1-1.4-0.1-2.2c0-0.8,0.1-1.5,0.1-2.3h14.6v-15c0.9-0.1,1.8-0.2,2.7-0.2c0.9,0,1.8,0.1,2.6,0.2v15h14.7
		C37.4,18.5,37.5,19.2,37.5,20z"/>
</g>
</svg>
